<svg xmlns="http://www.w3.org/2000/svg" width="257" height="46" fill="none" viewBox="0 0 257 46">
  <path fill="#0B5FFF" d="M83.024 31.376c-1.632 0-2.944-.456-3.936-1.368-.976-.928-1.464-2.24-1.464-3.936h3.072c.016.784.2 1.408.552 1.872.352.464.92.696 1.704.696.736 0 1.272-.216 1.608-.648.336-.448.504-1.032.504-1.752V14.288h3.072V26.24c0 1.648-.464 2.92-1.392 3.816-.912.88-2.152 1.32-3.72 1.32z"/>
  <path fill="#fff" d="M83.024 31.376c-1.632 0-2.944-.456-3.936-1.368-.976-.928-1.464-2.24-1.464-3.936h3.072c.016.784.2 1.408.552 1.872.352.464.92.696 1.704.696.736 0 1.272-.216 1.608-.648.336-.448.504-1.032.504-1.752V14.288h3.072V26.24c0 1.648-.464 2.92-1.392 3.816-.912.88-2.152 1.32-3.72 1.32z"/>
  <path fill="#0B5FFF" d="M109.599 31.088l6.144-16.8h3.456l6.144 16.8h-3.264l-1.344-3.888h-6.552l-1.368 3.888h-3.216zm5.424-6.288h4.872l-2.448-6.984-2.424 6.984z"/>
  <path fill="#fff" d="M109.599 31.088l6.144-16.8h3.456l6.144 16.8h-3.264l-1.344-3.888h-6.552l-1.368 3.888h-3.216zm5.424-6.288h4.872l-2.448-6.984-2.424 6.984z"/>
  <path fill="#0B5FFF" d="M147.507 31.088v-16.8h6.168c1.344 0 2.448.232 3.312.696.88.448 1.536 1.064 1.968 1.848.432.768.648 1.624.648 2.568 0 1.024-.272 1.96-.816 2.808-.528.848-1.36 1.464-2.496 1.848l3.48 7.032h-3.528l-3.12-6.624h-2.544v6.624h-3.072zm3.072-8.88h2.904c1.024 0 1.776-.248 2.256-.744.48-.496.72-1.152.72-1.968 0-.8-.24-1.44-.72-1.92-.464-.48-1.224-.72-2.28-.72h-2.88v5.352z"/>
  <path fill="#fff" d="M147.507 31.088v-16.8h6.168c1.344 0 2.448.232 3.312.696.88.448 1.536 1.064 1.968 1.848.432.768.648 1.624.648 2.568 0 1.024-.272 1.96-.816 2.808-.528.848-1.36 1.464-2.496 1.848l3.48 7.032h-3.528l-3.12-6.624h-2.544v6.624h-3.072zm3.072-8.88h2.904c1.024 0 1.776-.248 2.256-.744.48-.496.72-1.152.72-1.968 0-.8-.24-1.44-.72-1.92-.464-.48-1.224-.72-2.28-.72h-2.88v5.352z"/>
  <path fill="#0B5FFF" d="M186.746 31.088l-6.144-16.8h3.288l4.752 13.656 4.776-13.656h3.24l-6.144 16.8h-3.768z"/>
  <path fill="#fff" d="M186.746 31.088l-6.144-16.8h3.288l4.752 13.656 4.776-13.656h3.24l-6.144 16.8h-3.768z"/>
  <path fill="#0B5FFF" d="M218.655 31.088v-16.8h3.072v16.8h-3.072z"/>
  <path fill="#fff" d="M218.655 31.088v-16.8h3.072v16.8h-3.072z"/>
  <path fill="#0B5FFF" d="M250.72 31.376c-1.232 0-2.32-.208-3.264-.624-.944-.432-1.688-1.04-2.232-1.824-.544-.8-.824-1.768-.84-2.904h3.24c.032.784.312 1.448.84 1.992.544.528 1.288.792 2.232.792.816 0 1.464-.192 1.944-.576.48-.4.72-.928.72-1.584 0-.688-.216-1.224-.648-1.608-.416-.384-.976-.696-1.68-.936l-2.256-.768c-1.296-.448-2.288-1.024-2.976-1.728-.672-.704-1.008-1.64-1.008-2.808-.016-.992.216-1.84.696-2.544.496-.72 1.168-1.272 2.016-1.656.848-.4 1.824-.6 2.928-.6 1.12 0 2.104.2 2.952.6.864.4 1.536.96 2.016 1.68.496.72.76 1.576.792 2.568h-3.288c-.016-.592-.248-1.112-.696-1.56-.432-.464-1.04-.696-1.824-.696-.672-.016-1.24.152-1.704.504-.448.336-.672.832-.672 1.488 0 .56.176 1.008.528 1.344.352.32.832.592 1.44.816.608.224 1.304.464 2.088.72.832.288 1.592.624 2.28 1.008.688.384 1.24.896 1.656 1.536.416.624.624 1.432.624 2.424 0 .88-.224 1.696-.672 2.448-.448.752-1.112 1.36-1.992 1.824-.88.448-1.96.672-3.24.672z"/>
  <path fill="#fff" d="M250.72 31.376c-1.232 0-2.32-.208-3.264-.624-.944-.432-1.688-1.04-2.232-1.824-.544-.8-.824-1.768-.84-2.904h3.24c.032.784.312 1.448.84 1.992.544.528 1.288.792 2.232.792.816 0 1.464-.192 1.944-.576.48-.4.72-.928.72-1.584 0-.688-.216-1.224-.648-1.608-.416-.384-.976-.696-1.68-.936l-2.256-.768c-1.296-.448-2.288-1.024-2.976-1.728-.672-.704-1.008-1.64-1.008-2.808-.016-.992.216-1.84.696-2.544.496-.72 1.168-1.272 2.016-1.656.848-.4 1.824-.6 2.928-.6 1.12 0 2.104.2 2.952.6.864.4 1.536.96 2.016 1.68.496.72.76 1.576.792 2.568h-3.288c-.016-.592-.248-1.112-.696-1.56-.432-.464-1.04-.696-1.824-.696-.672-.016-1.24.152-1.704.504-.448.336-.672.832-.672 1.488 0 .56.176 1.008.528 1.344.352.32.832.592 1.44.816.608.224 1.304.464 2.088.72.832.288 1.592.624 2.28 1.008.688.384 1.24.896 1.656 1.536.416.624.624 1.432.624 2.424 0 .88-.224 1.696-.672 2.448-.448.752-1.112 1.36-1.992 1.824-.88.448-1.96.672-3.24.672z"/>
  <path fill="url(#paint0_linear)" fill-rule="evenodd" d="M25 34h-.02c-6.843 0-12.451-5.288-12.962-12H0c.525 13.343 11.508 24 24.98 24H25V34z" clip-rule="evenodd"/>
  <path fill="url(#paint1_linear)" d="M49 0H37v21h12V0z"/>
  <path fill="url(#paint2_linear)" fill-rule="evenodd" d="M37 21v.02c0 6.843-5.288 12.451-12 12.962V46c13.343-.525 24-11.508 24-24.98V21H37z" clip-rule="evenodd"/>
  <defs>
    <linearGradient id="paint0_linear" x1="25.5" x2="0" y1="45" y2="19.5" gradientUnits="userSpaceOnUse">
      <stop stop-color="#4B9BFF"/>
      <stop offset="1" stop-color="#30313F"/>
      <stop offset="1" stop-color="#30313F"/>
    </linearGradient>
    <linearGradient id="paint1_linear" x1="43" x2="43" y2="25.773" gradientUnits="userSpaceOnUse">
      <stop stop-color="#4B9BFF"/>
      <stop offset="1" stop-color="#303343"/>
    </linearGradient>
    <linearGradient id="paint2_linear" x1="48" x2="22.5" y1="20.5" y2="46" gradientUnits="userSpaceOnUse">
      <stop stop-color="#4B9BFF"/>
      <stop offset="1" stop-color="#30313F"/>
      <stop offset="1" stop-color="#30313F"/>
    </linearGradient>
  </defs>
</svg>
