<svg aria-hidden="true" focusable="false" data-prefix="fas" data-icon="liferay-logo" class="svg-inline--fa fa-liferay-logo fa-w-16" role="img" xmlns="http://www.w3.org/2000/svg" viewBox="0 0 504 504">
   <path stroke="null" id="svg_2" fill="currentColor" d="m241.16023,10c0,32.99266 0,65.98531 0,99.22603c0,5.45743 0,5.45743 -5.69238,5.45743c-31.67935,0 -63.35869,0 -95.03804,0c-3.21743,0 -4.9499,-0.49613 -4.9499,-4.21711c0,-32.74459 0,-65.24112 0,-97.98571c0,-0.7442 0.24749,-1.73646 0.24749,-2.48065c35.14427,0 70.28855,0 105.43282,0z"/>
   <path stroke="null" id="svg_3" fill="currentColor" d="m494.10001,368.45405c-33.16432,0 -66.08114,0 -99.24545,0c-4.20741,0 -5.44489,-1.24033 -5.44489,-5.45743c0.24749,-31.50427 0.24749,-63.2566 0,-94.76086c0,-4.21711 1.23747,-5.45743 5.44489,-5.45743c33.16432,0.24807 66.08114,0.24807 99.24545,0.24807c0,34.97718 0,70.20242 0,105.42766z"/>
   <path id="svg_4" fill="currentColor" d="m114.44285,10c0,32.99266 0,65.73725 0,98.7299c0,5.95356 0,5.95356 -5.93988,5.95356c-30.93686,0 -61.87372,0 -92.81058,0c-5.44489,0 -5.44489,0 -5.44489,-5.7055c0,-32.99266 0,-65.98531 0,-98.97797c34.64929,0 69.54606,0 104.19535,0z"/>
   <path stroke="null" id="svg_5" fill="currentColor" d="m494.10001,240.70053c-1.23747,0 -2.47495,0.24807 -3.71242,0.24807c-31.92684,0 -63.60619,0 -95.53303,0c-3.95992,0 -5.19739,-1.24033 -5.19739,-5.20937c0.24749,-31.50427 0,-63.00853 0,-94.5128c0,-3.47291 0.49499,-5.45743 4.7024,-5.45743c33.16432,0.24807 66.57613,0 99.74044,0.24807c0,34.97718 0,69.70629 0,104.68347z"/>
   <path stroke="null" id="svg_6" fill="currentColor" d="m494.10001,493.47885c-33.16432,0 -66.57613,0 -99.74044,0c-4.45491,0 -5.44489,-1.24033 -5.44489,-5.45743c0.24749,-31.00814 0.24749,-62.01627 0,-93.02441c0,-4.21711 0.98998,-5.7055 5.44489,-5.45743c33.16432,0.24807 66.32863,0.24807 99.74044,0.24807c0,34.48105 0,68.96209 0,103.69121z"/>
   <path stroke="null" id="svg_7" fill="currentColor" d="m367.63012,10c0,33.24072 0,66.23338 0,99.4741c0,3.47291 -1.23747,4.71324 -4.7024,4.71324c-31.92684,0 -63.60619,0 -95.53303,0c-2.72244,0 -4.7024,-0.24807 -4.7024,-3.72098c0,-33.24072 0.24749,-66.72951 0.24749,-99.97023c0,-0.24807 0,-0.24807 0,-0.49613c34.89678,0 69.79356,0 104.69034,0z"/>
   <path stroke="null" id="svg_8" fill="currentColor" d="m10,188.60686c0,-16.12423 0,-32.0004 0,-48.12463c0,-3.72098 0.98998,-4.9613 4.7024,-4.9613c31.67935,0.24807 63.35869,0 95.03804,0c3.46493,0 4.7024,1.24033 4.7024,4.71324c0,32.24846 0,64.49692 0,96.49732c0,3.47291 -0.98998,4.71324 -4.45491,4.71324c-31.92684,0 -63.60619,0 -95.53303,0c-3.46493,0 -4.45491,-0.99226 -4.45491,-4.46517c0.24749,-15.87617 0,-32.0004 0,-48.37269z"/>
   <path stroke="null" id="svg_9" fill="currentColor" d="m240.41775,188.60686c0,15.6281 0,31.50427 0,47.13237c0,3.72098 -0.98998,5.20937 -4.9499,5.20937c-31.67935,-0.24807 -63.35869,-0.24807 -95.03804,0c-3.71242,0 -4.9499,-0.99226 -4.9499,-4.9613c0.24749,-31.75233 0,-63.50466 0,-95.25699c0,-3.47291 0.98998,-4.9613 4.7024,-4.9613c31.92684,0 63.60619,0 95.53303,0c3.46493,0 4.7024,1.24033 4.7024,4.71324c0,16.12423 0,32.0004 0,48.12463z"/>
   <path stroke="null" id="svg_10" fill="currentColor" d="m314.91371,493.47885c-16.08717,0 -31.92684,0 -48.01401,0c-3.71242,0 -4.9499,-0.99226 -4.9499,-4.71324c0.24749,-31.50427 0.24749,-63.00853 0,-94.26473c0,-3.96904 1.23747,-4.9613 5.19739,-4.9613c31.92684,0 63.60619,0.24807 95.53303,0c4.20741,0 5.19739,1.48839 5.19739,5.45743c-0.24749,31.2562 0,62.26434 0,93.52054c0,3.72098 -0.98998,5.20937 -4.9499,5.20937c-16.08717,-0.24807 -31.92684,-0.24807 -48.01401,-0.24807z"/>
   <path stroke="null" id="svg_11" fill="currentColor" d="m315.4087,263.52252c15.59218,0 31.43185,0 47.02403,0c3.71242,0 5.19739,0.99226 5.19739,4.9613c-0.24749,31.50427 -0.24749,63.00853 0,94.5128c0,3.96904 -1.23747,4.9613 -5.19739,4.9613c-31.43185,0 -63.1112,0 -94.54305,0c-3.71242,0 -5.19739,-0.99226 -5.19739,-4.9613c0.24749,-31.50427 0.24749,-63.00853 0,-94.5128c0,-3.96904 1.48497,-4.9613 5.19739,-4.9613c15.83967,0 31.67935,0 47.51902,0z"/>
   <path stroke="null" id="svg_12" fill="currentColor" d="m61.97393,263.52252c15.59218,0 31.18436,0 46.77653,0c3.71242,0 5.19739,0.99226 5.19739,4.9613c-0.24749,31.50427 -0.24749,63.00853 0,94.5128c0,3.96904 -1.48497,4.9613 -5.19739,4.9613c-31.18436,0 -62.61621,0 -93.80056,0c-3.71242,0 -4.9499,-0.99226 -4.9499,-4.71324c0.24749,-31.50427 0.24749,-63.2566 0,-94.76086c0,-3.72098 1.23747,-4.71324 4.9499,-4.71324c15.59218,-0.24807 31.43185,-0.24807 47.02403,-0.24807z"/>
   <path stroke="null" id="svg_13" fill="currentColor" d="m187.45384,493.47885c-15.59218,0 -31.43185,0 -47.02403,0c-3.71242,0 -4.9499,-0.99226 -4.7024,-4.71324c0.24749,-31.2562 0.24749,-62.26434 0,-93.52054c0,-3.96904 1.48497,-4.9613 5.19739,-4.9613c31.43185,0 63.1112,0 94.54305,0c3.95992,0 5.19739,1.24033 5.19739,5.20937c0,31.00814 0,62.01627 0,93.27247c0,3.72098 -0.98998,5.20937 -4.9499,5.20937c-16.33466,-0.49613 -32.17434,-0.49613 -48.2615,-0.49613z"/>
</svg>
